<svg width="116" height="204" viewBox="0 0 116 204" fill="none" xmlns="http://www.w3.org/2000/svg">
<g clip-path="url(#clip0_315_2)">
<path d="M6.43215 79.0698C6.43215 78.299 8.07415 77.9653 9.1698 77.9653H107.291C108.387 77.9653 108.611 78.302 108.611 79.0698V183.703C108.611 184.474 108.15 185.392 107.179 185.747L60.2283 202.92C59.2537 203.274 57.7446 203.277 56.7671 202.928L8.53485 185.738C7.55733 185.386 6.4292 184.471 6.4292 183.703V79.0698H6.43215Z" fill="#181818"/>
<path d="M111.357 98.1978C111.357 98.1978 64.1736 113.797 4.6394 98.1978V67.8445C59.5577 82.1411 111.357 67.8445 111.357 67.8445V98.1978Z" fill="white"/>
<path d="M111.357 67.8446V98.1978C111.357 98.1978 90.3836 105.129 58.7663 105.129C42.9547 105.129 24.4852 103.396 4.63946 98.1978V67.8446C22.9436 72.6111 40.9051 74.1999 56.7138 74.1999C88.334 74.1999 111.354 67.8446 111.354 67.8446M115.956 61.8022L110.132 63.4088C109.884 63.4767 87.2532 69.5988 56.7138 69.5988C38.7463 69.5988 21.6146 67.5108 5.79713 63.394L0.0383301 61.8908V101.748L3.47294 102.648C21.4109 107.347 40.0133 109.73 58.7663 109.73C90.7557 109.73 111.916 102.858 112.802 102.566L115.959 101.523V61.8022H115.956Z" fill="#181818"/>
<path d="M22.2792 79.7106C22.5982 79.7696 22.8905 79.8907 23.1534 80.0679C23.4162 80.2451 23.6348 80.4548 23.8031 80.6969C23.9744 80.9391 24.0984 81.2138 24.1752 81.5179C24.252 81.8251 24.2638 82.1352 24.2077 82.4512C23.6643 85.5225 23.1209 88.5939 22.5775 91.6652C22.5214 91.9812 22.4003 92.2707 22.2172 92.5305C22.0312 92.7904 21.8097 93.006 21.5527 93.1773C21.2928 93.3486 21.0005 93.4638 20.6727 93.5258C20.3449 93.5878 20.0082 93.5878 19.6656 93.5228C17.1435 93.0444 14.6274 92.5217 12.1171 91.9517C11.7775 91.8749 11.4674 91.742 11.1898 91.553C10.9122 91.364 10.6848 91.1396 10.5106 90.8767C10.3334 90.6139 10.2153 90.3304 10.1562 90.0173C10.0971 89.7073 10.106 89.3972 10.1798 89.0841C10.9093 86.0511 11.6358 83.0182 12.3652 79.9852C12.439 79.6722 12.5719 79.3916 12.758 79.1406C12.9441 78.8896 13.1685 78.6887 13.4284 78.5352C13.6883 78.3846 13.9747 78.2782 14.2878 78.2221C14.6008 78.1631 14.9168 78.1719 15.2328 78.2428C17.5747 78.7744 19.9225 79.2646 22.2792 79.7106ZM20.4275 82.8292C18.8387 82.5191 17.2528 82.1883 15.6699 81.8369C15.1501 84.1906 14.6303 86.5443 14.1106 88.8951C15.7496 89.2584 17.3946 89.6009 19.0395 89.9228C19.5032 87.5573 19.9639 85.1918 20.4275 82.8292Z" fill="#181818"/>
<path d="M38.3831 82.1853C38.4481 82.2651 38.4776 82.3596 38.4658 82.4659C38.3742 83.346 38.2827 84.2231 38.1911 85.1031C38.1793 85.2095 38.1321 85.2951 38.0494 85.3601C37.9667 85.425 37.8692 85.4516 37.76 85.4398C35.4712 85.1976 33.1884 84.9141 30.9085 84.5922C30.8405 84.5834 30.8021 84.604 30.7962 84.6572C30.6929 85.3807 30.5925 86.1013 30.4891 86.8249C30.4802 86.8928 30.5098 86.9282 30.5777 86.94C32.326 87.1881 34.0802 87.4096 35.8315 87.6134C35.9408 87.6252 36.0264 87.6724 36.0884 87.7551C36.1505 87.8349 36.1741 87.9294 36.1623 88.0357C36.0678 88.8685 35.9733 89.6984 35.8817 90.5312C35.8699 90.6375 35.8256 90.7231 35.7459 90.7881C35.6661 90.8531 35.5716 90.8797 35.4594 90.8678C33.6786 90.6641 31.8978 90.4367 30.1199 90.1856C30.0491 90.1768 30.0107 90.2034 30.0018 90.2713C29.7892 91.7627 29.5795 93.2541 29.3669 94.7454C29.3314 94.9965 29.1779 95.1028 28.9062 95.0644C27.9168 94.9226 26.9305 94.772 25.9411 94.6155C25.6694 94.5712 25.5543 94.4265 25.5926 94.1725C26.2926 89.7958 26.9954 85.4221 27.6953 81.0454C27.7367 80.7944 27.8814 80.688 28.1354 80.7294C31.4548 81.2551 34.7831 81.6951 38.1203 82.0495C38.2266 82.0613 38.3152 82.1086 38.3802 82.1883L38.3831 82.1853Z" fill="#181818"/>
<path d="M51.2032 83.1097C51.2741 83.1865 51.3066 83.278 51.3036 83.3843C51.2682 84.2673 51.2357 85.1504 51.2002 86.0334C51.1973 86.1397 51.1559 86.2283 51.0762 86.2992C50.9965 86.37 50.9049 86.4025 50.7956 86.3996C48.501 86.3051 46.2063 86.1722 43.9117 86.0009C43.8437 85.995 43.8083 86.0186 43.8024 86.0718C43.7463 86.7983 43.6931 87.5277 43.637 88.2542C43.6311 88.3221 43.6636 88.3576 43.7345 88.3635C45.4916 88.4964 47.2518 88.6056 49.0148 88.6913C49.1271 88.6972 49.2127 88.7385 49.2806 88.8153C49.3456 88.8921 49.3781 88.9837 49.3722 89.09C49.3338 89.9257 49.2924 90.7615 49.2541 91.5973C49.2482 91.7036 49.2098 91.7922 49.1359 91.8631C49.0621 91.9339 48.9676 91.9664 48.8554 91.9605C47.0657 91.8719 45.279 91.7626 43.4923 91.6268C43.4214 91.6209 43.383 91.6534 43.3801 91.7183C43.2649 93.2215 43.1527 94.7218 43.0375 96.225C43.0168 96.479 42.8721 96.5941 42.5975 96.5735C41.6022 96.4967 40.61 96.411 39.6147 96.3195C39.3401 96.2929 39.216 96.1541 39.2396 95.9001C39.6531 91.488 40.0695 87.0759 40.483 82.6637C40.5066 82.4098 40.6454 82.2946 40.9023 82.3182C44.2424 82.6253 47.5884 82.8468 50.9344 82.9827C51.0408 82.9856 51.1323 83.027 51.2032 83.1038V83.1097Z" fill="#181818"/>
<path d="M56.7551 96.8158C56.7551 97.0697 56.6134 97.1967 56.3387 97.1938C55.3435 97.182 54.3453 97.1613 53.3501 97.1347C53.0754 97.1288 52.9425 96.9959 52.9484 96.7419C53.0754 92.3121 53.2024 87.8822 53.3264 83.4524C53.3324 83.1984 53.4652 83.0744 53.7222 83.0803C54.6524 83.1039 55.5827 83.1216 56.513 83.1334C56.7699 83.1364 56.8969 83.2663 56.894 83.5203C56.8467 87.9502 56.8024 92.383 56.7551 96.8128V96.8158Z" fill="#181818"/>
<path d="M63.7664 86.6093C63.6925 86.6772 63.6571 86.7658 63.66 86.8721C63.7102 89.0398 63.7605 91.2075 63.8107 93.3781C63.8107 93.4844 63.855 93.57 63.9347 93.635C64.0144 93.7 64.1119 93.7325 64.2241 93.7295C66.504 93.6705 68.7839 93.576 71.0608 93.4431C71.1731 93.4372 71.2735 93.4667 71.3562 93.5376C71.4389 93.6055 71.4832 93.6941 71.4891 93.8004C71.5422 94.6834 71.5954 95.5635 71.6485 96.4465C71.6545 96.5528 71.619 96.6473 71.5452 96.7241C71.4713 96.8038 71.3739 96.8452 71.2587 96.8511C69.7526 96.9397 68.2435 97.0106 66.7344 97.0667C65.494 97.111 64.2507 97.1464 63.0103 97.17C62.8804 97.17 62.7504 97.1759 62.6205 97.1759C62.275 97.1818 61.9442 97.1257 61.6341 97.0106C61.3211 96.8954 61.0494 96.73 60.819 96.5174C60.5857 96.3047 60.4056 96.0567 60.2756 95.7672C60.1457 95.4808 60.0778 95.1766 60.0778 94.8547C60.0778 94.7336 60.0778 94.6125 60.0778 94.4944C60.0778 94.0071 60.0719 93.5169 60.0689 93.0296C60.06 91.4703 60.0512 89.911 60.0453 88.3517C60.0453 87.9176 60.0394 87.4805 60.0394 87.0464C60.0394 86.5295 60.0335 86.0157 60.0305 85.4989C60.0305 85.177 60.0896 84.8728 60.2077 84.5834C60.3288 84.294 60.4942 84.0459 60.7098 83.8362C60.9253 83.6265 61.1764 83.4582 61.4658 83.3253C61.7552 83.1953 62.0594 83.1274 62.3842 83.1215C62.5053 83.1215 62.6264 83.1186 62.7475 83.1156C65.3168 83.0654 67.8832 82.9679 70.4466 82.8173C70.5558 82.8114 70.6474 82.8439 70.7271 82.9118C70.8069 82.9798 70.8482 83.0684 70.8541 83.1747C70.9073 84.0577 70.9604 84.9378 71.0136 85.8208C71.0195 85.9271 70.987 86.0216 70.9161 86.0984C70.8453 86.1752 70.7537 86.2195 70.6444 86.2254C68.4472 86.3524 66.2471 86.4469 64.044 86.5C63.9347 86.5 63.8431 86.5384 63.7693 86.6063L63.7664 86.6093Z" fill="#181818"/>
<path d="M78.8781 95.8854C78.9017 96.1394 78.7777 96.2782 78.503 96.3048C77.5107 96.3963 76.5155 96.482 75.5232 96.5617C75.2485 96.5824 75.1038 96.4672 75.0832 96.2132C74.7435 91.7952 74.4069 87.3772 74.0673 82.9591C74.0466 82.7052 74.1647 82.5693 74.4216 82.5486C75.349 82.4748 76.2763 82.3951 77.2036 82.3094C77.4576 82.2858 77.5993 82.401 77.6229 82.652C78.0423 87.0641 78.4587 91.4762 78.8781 95.8854Z" fill="#181818"/>
<path d="M90.1859 80.6644C90.5048 80.6142 90.8208 80.626 91.128 80.7057C91.4351 80.7855 91.7097 80.9065 91.9519 81.0778C92.1941 81.2462 92.4037 81.4618 92.5809 81.7246C92.7581 81.9874 92.8733 82.2739 92.9294 82.5928C93.5732 86.3139 94.2141 90.035 94.8579 93.7531C94.8756 93.8594 94.852 93.9539 94.787 94.0396C94.722 94.1252 94.6305 94.1784 94.5153 94.199C93.523 94.3674 92.5278 94.5298 91.5355 94.6863C91.4203 94.704 91.317 94.6834 91.2284 94.6214C91.1398 94.5623 91.0837 94.4766 91.0689 94.3703C90.8858 93.1861 90.7027 92.0018 90.5225 90.8176C90.5078 90.7113 90.4576 90.6286 90.3749 90.5666C90.2951 90.5045 90.1977 90.4809 90.0855 90.4986C88.6974 90.7113 87.3065 90.9062 85.9155 91.0893C85.8033 91.1041 85.7117 91.1543 85.6438 91.2369C85.5759 91.3196 85.5493 91.4141 85.5611 91.5205C85.7147 92.7077 85.8682 93.8978 86.0218 95.085C86.0543 95.336 85.9332 95.4807 85.6615 95.5162C84.6722 95.6432 83.6799 95.7613 82.6876 95.8735C82.413 95.9031 82.2623 95.7938 82.2358 95.5398C81.8194 91.7863 81.403 88.0356 80.9866 84.2821C80.9511 83.9631 80.9777 83.653 81.0692 83.3548C81.1578 83.0565 81.2996 82.7907 81.4916 82.5604C81.6835 82.33 81.9168 82.1351 82.1885 81.9727C82.4632 81.8132 82.7585 81.7128 83.0804 81.6714C85.4518 81.3791 87.8203 81.0424 90.1859 80.6644ZM90.0028 87.4627C89.8226 86.2991 89.6454 85.1326 89.4653 83.969C87.8705 84.2142 86.2728 84.4416 84.6722 84.6483C84.8228 85.8178 84.9734 86.9843 85.127 88.1538C86.7542 87.9441 88.3815 87.7137 90.0028 87.4627Z" fill="#181818"/>
<path d="M107.12 88.139C107.232 88.1124 107.329 88.1272 107.418 88.1803C107.504 88.2365 107.56 88.3162 107.586 88.4196C107.793 89.2789 108 90.1383 108.207 90.9977C108.23 91.1011 108.218 91.1985 108.165 91.2871C108.112 91.3757 108.029 91.4348 107.914 91.4614C104.858 92.1879 101.792 92.8465 98.7148 93.4371C98.4432 93.4903 98.2837 93.3898 98.2364 93.1388C97.4125 88.7858 96.5856 84.4297 95.7616 80.0767C95.7144 79.8256 95.8177 79.678 96.0687 79.6307C96.9872 79.4535 97.9027 79.2734 98.8182 79.0844C99.0692 79.0312 99.2228 79.1316 99.273 79.3797C99.9463 82.6105 100.62 85.8414 101.293 89.0722C101.314 89.1785 101.37 89.2553 101.461 89.3026C101.553 89.3528 101.653 89.3646 101.766 89.341C103.555 88.9659 105.339 88.5643 107.123 88.139H107.12Z" fill="#181818"/>
<path d="M116.033 61.7934L110.153 58.8786L110.088 0H5.25086L5.36308 59.3482L-0.0324707 62.0238L5.36308 65.7714V65.8541H5.48417L5.81493 66.0845L5.83856 65.8541H7.65775C7.65775 65.8541 57.9867 80.9658 109.391 66.0845H110.159V65.8659C110.159 65.8659 110.182 65.86 110.191 65.8571L116.035 61.7964L116.033 61.7934Z" fill="#181818"/>
<path d="M25.9706 165.803C26.2571 165.924 26.5022 166.09 26.7089 166.302C26.9156 166.515 27.081 166.76 27.208 167.041C27.335 167.318 27.397 167.619 27.397 167.938V171.686C27.397 172.005 27.335 172.306 27.208 172.593C27.081 172.879 26.9156 173.127 26.7089 173.34C26.5022 173.552 26.2571 173.718 25.9706 173.839C25.6842 173.96 25.3829 174.019 25.064 174.019H17.1109C16.8569 174.019 16.7329 173.892 16.7329 173.641V171.228C16.7329 171.122 16.7683 171.033 16.8422 170.959C16.916 170.886 17.0046 170.85 17.1109 170.85H23.8886C23.9949 170.85 24.0835 170.818 24.1573 170.75C24.2312 170.685 24.2666 170.596 24.2666 170.49V168.836C24.2666 168.73 24.2312 168.641 24.1573 168.567C24.0835 168.493 23.9949 168.458 23.8886 168.458H19.066C18.747 168.458 18.4458 168.399 18.1593 168.278C17.8729 168.157 17.6248 167.991 17.4122 167.779C17.1995 167.566 17.0341 167.321 16.9131 167.041C16.792 166.76 16.7329 166.462 16.7329 166.143V162.395C16.7329 162.076 16.792 161.775 16.9131 161.488C17.0312 161.202 17.1995 160.957 17.4122 160.75C17.6248 160.543 17.8729 160.378 18.1593 160.251C18.4458 160.124 18.747 160.062 19.066 160.062H26.579C26.83 160.062 26.957 160.189 26.957 160.44V162.891C26.957 162.998 26.9216 163.083 26.8477 163.151C26.7739 163.219 26.6853 163.251 26.579 163.251H20.2207C20.1144 163.251 20.0287 163.287 19.9608 163.361C19.8929 163.435 19.8604 163.523 19.8604 163.63V165.245C19.8604 165.351 19.8929 165.44 19.9608 165.514C20.0258 165.588 20.1144 165.623 20.2207 165.623H25.064C25.3829 165.623 25.6842 165.682 25.9706 165.803Z" fill="white"/>
<path d="M40.9789 160.174C41.0527 160.248 41.0882 160.337 41.0882 160.443V162.953C41.0882 163.06 41.0527 163.145 40.9789 163.213C40.9051 163.281 40.8165 163.314 40.7101 163.314H34.0329C33.965 163.314 33.9325 163.346 33.9325 163.414V165.588C33.9325 165.641 33.965 165.667 34.0329 165.667H39.7326C39.8389 165.667 39.9246 165.703 39.9925 165.777C40.0575 165.851 40.0929 165.939 40.0929 166.045V168.039C40.0929 168.145 40.0604 168.237 39.9925 168.308C39.9246 168.381 39.8389 168.417 39.7326 168.417H34.0329C33.965 168.417 33.9325 168.449 33.9325 168.517V170.67C33.9325 170.738 33.965 170.771 34.0329 170.771H40.7101C40.8165 170.771 40.9051 170.806 40.9789 170.88C41.0527 170.954 41.0882 171.042 41.0882 171.149V173.641C41.0882 173.747 41.0527 173.836 40.9789 173.91C40.9051 173.984 40.8165 174.019 40.7101 174.019H30.805C30.551 174.019 30.427 173.892 30.427 173.641V160.446C30.427 160.34 30.4624 160.251 30.5363 160.177C30.6101 160.104 30.6987 160.068 30.805 160.068H40.7101C40.8165 160.068 40.9051 160.104 40.9789 160.177V160.174Z" fill="white"/>
<path d="M53.6246 160.065C53.9436 160.065 54.2448 160.127 54.5313 160.254C54.8177 160.381 55.0628 160.547 55.2696 160.753C55.4763 160.96 55.6417 161.205 55.7687 161.492C55.8957 161.778 55.9577 162.079 55.9577 162.398V173.638C55.9577 173.745 55.9222 173.833 55.8484 173.907C55.7746 173.981 55.686 174.016 55.5797 174.016H52.8095C52.7032 174.016 52.6146 173.981 52.5408 173.907C52.4669 173.833 52.4315 173.745 52.4315 173.638V170.071C52.4315 169.964 52.399 169.876 52.3311 169.802C52.2632 169.728 52.1775 169.693 52.0712 169.693H48.1257C48.0194 169.693 47.9308 169.728 47.8569 169.802C47.7831 169.876 47.7477 169.964 47.7477 170.071V173.638C47.7477 173.892 47.6207 174.016 47.3697 174.016H44.6202C44.3692 174.016 44.2422 173.889 44.2422 173.638V162.398C44.2422 162.079 44.3013 161.778 44.4223 161.492C44.5434 161.205 44.7088 160.96 44.9214 160.753C45.1341 160.547 45.3821 160.381 45.6686 160.254C45.9551 160.127 46.2563 160.065 46.5752 160.065H53.6305H53.6246ZM52.4286 166.701V163.193H47.7447V166.701H52.4286Z" fill="white"/>
<path d="M68.2846 165.803C68.571 165.924 68.8162 166.09 69.0229 166.302C69.2296 166.515 69.395 166.76 69.522 167.041C69.649 167.318 69.711 167.619 69.711 167.938V171.686C69.711 172.005 69.649 172.306 69.522 172.593C69.395 172.879 69.2296 173.127 69.0229 173.34C68.8162 173.552 68.571 173.718 68.2846 173.839C67.9981 173.96 67.6969 174.019 67.3779 174.019H59.4249C59.1709 174.019 59.0469 173.892 59.0469 173.641V171.228C59.0469 171.122 59.0823 171.033 59.1561 170.959C59.23 170.886 59.3186 170.85 59.4249 170.85H66.2025C66.3089 170.85 66.3975 170.818 66.4713 170.75C66.5451 170.685 66.5806 170.596 66.5806 170.49V168.836C66.5806 168.73 66.5451 168.641 66.4713 168.567C66.3975 168.493 66.3089 168.458 66.2025 168.458H61.3799C61.061 168.458 60.7597 168.399 60.4733 168.278C60.1868 168.157 59.9388 167.991 59.7261 167.779C59.5135 167.566 59.3481 167.321 59.227 167.041C59.1059 166.76 59.0469 166.462 59.0469 166.143V162.395C59.0469 162.076 59.1059 161.775 59.227 161.488C59.3452 161.202 59.5135 160.957 59.7261 160.75C59.9388 160.543 60.1868 160.378 60.4733 160.251C60.7597 160.124 61.061 160.062 61.3799 160.062H68.8929C69.1469 160.062 69.271 160.189 69.271 160.44V162.891C69.271 162.998 69.2355 163.083 69.1617 163.151C69.0879 163.219 68.9993 163.251 68.8929 163.251H62.5346C62.4283 163.251 62.3427 163.287 62.2748 163.361C62.2098 163.435 62.1743 163.523 62.1743 163.63V165.245C62.1743 165.351 62.2068 165.44 62.2748 165.514C62.3397 165.588 62.4283 165.623 62.5346 165.623H67.3779C67.6969 165.623 67.9981 165.682 68.2846 165.803Z" fill="white"/>
<path d="M82.0851 160.065C82.4041 160.065 82.7053 160.127 82.9917 160.254C83.2782 160.381 83.5233 160.547 83.73 160.753C83.9368 160.96 84.1022 161.205 84.2291 161.492C84.3561 161.778 84.4182 162.079 84.4182 162.398V171.686C84.4182 172.005 84.3561 172.306 84.2291 172.593C84.1022 172.879 83.9368 173.127 83.73 173.34C83.5233 173.553 83.2782 173.718 82.9917 173.839C82.7053 173.96 82.4041 174.019 82.0851 174.019H75.0298C74.7109 174.019 74.4097 173.96 74.1232 173.839C73.8367 173.718 73.5887 173.553 73.376 173.34C73.1634 173.127 72.998 172.879 72.8769 172.593C72.7588 172.306 72.6968 172.005 72.6968 171.686V162.398C72.6968 162.079 72.7558 161.778 72.8769 161.492C72.998 161.205 73.1634 160.96 73.376 160.753C73.5887 160.547 73.8367 160.381 74.1232 160.254C74.4097 160.127 74.7109 160.065 75.0298 160.065H82.0851ZM80.889 163.453H76.2052V170.629H80.889V163.453Z" fill="white"/>
<path d="M99.1575 160.174C99.2313 160.248 99.2668 160.337 99.2668 160.443V173.638C99.2668 173.744 99.2313 173.833 99.1575 173.907C99.0837 173.981 98.9951 174.016 98.8888 174.016H96.0182C95.9119 174.016 95.8056 173.986 95.6993 173.927C95.5929 173.868 95.5132 173.792 95.4601 173.697L91.0538 165.564V173.635C91.0538 173.889 90.9268 174.013 90.6758 174.013H87.9264C87.6724 174.013 87.5483 173.886 87.5483 173.635V160.44C87.5483 160.189 87.6753 160.062 87.9264 160.062H90.7555C90.8619 160.062 90.9682 160.092 91.0745 160.151C91.1808 160.21 91.2606 160.286 91.3137 160.381L95.7377 168.532V160.44C95.7377 160.334 95.7731 160.245 95.8469 160.171C95.9208 160.097 96.0094 160.062 96.1157 160.062H98.8858C98.9921 160.062 99.0807 160.097 99.1546 160.171L99.1575 160.174Z" fill="white"/>
<path d="M23.8149 46.5134C23.8976 46.5488 23.9685 46.599 24.0276 46.6581C24.0866 46.7172 24.1339 46.788 24.1723 46.8707C24.2107 46.9534 24.2254 47.0391 24.2254 47.1306V50.3644C24.2254 50.3939 24.2136 50.4205 24.193 50.4412C24.1723 50.4619 24.1457 50.4737 24.1162 50.4737H23.3188C23.2893 50.4737 23.2627 50.4619 23.245 50.4412C23.2272 50.4205 23.2154 50.3939 23.2154 50.3644V47.4348H22.5746V50.3644C22.5746 50.3939 22.5657 50.4205 22.545 50.4412C22.5244 50.4619 22.5008 50.4737 22.4712 50.4737H21.7477C21.7181 50.4737 21.6916 50.4619 21.6709 50.4412C21.6502 50.4205 21.6384 50.3939 21.6384 50.3644V47.4348H20.9976V50.3644C20.9976 50.4382 20.9621 50.4737 20.8883 50.4737H20.0968C20.023 50.4737 19.9875 50.4382 19.9875 50.3644V46.5665C19.9875 46.4927 20.023 46.4573 20.0968 46.4573H23.5551C23.6466 46.4573 23.7352 46.475 23.8149 46.5104V46.5134Z" fill="white"/>
<path d="M27.8284 46.4602C27.92 46.4602 28.0086 46.4779 28.0913 46.5134C28.174 46.5488 28.2448 46.599 28.3039 46.6581C28.363 46.7171 28.4102 46.788 28.4486 46.8707C28.487 46.9534 28.5018 47.039 28.5018 47.1306V50.3644C28.5018 50.3939 28.49 50.4205 28.4693 50.4412C28.4486 50.4618 28.422 50.4736 28.3925 50.4736H27.5951C27.5656 50.4736 27.539 50.4618 27.5183 50.4412C27.4977 50.4205 27.4859 50.3939 27.4859 50.3644V49.3366C27.4859 49.3071 27.477 49.2805 27.4563 49.2599C27.4356 49.2392 27.412 49.2274 27.3825 49.2274H26.2455C26.216 49.2274 26.1894 49.2392 26.1687 49.2599C26.148 49.2805 26.1362 49.3071 26.1362 49.3366V50.3644C26.1362 50.4382 26.1008 50.4736 26.027 50.4736H25.2355C25.1646 50.4736 25.1262 50.4382 25.1262 50.3644V47.1306C25.1262 47.039 25.1439 46.9504 25.1764 46.8707C25.2119 46.788 25.2591 46.7171 25.3211 46.6581C25.3832 46.599 25.454 46.5518 25.5367 46.5134C25.6194 46.4779 25.7051 46.4602 25.7966 46.4602H27.8284ZM27.4859 48.3709V47.3609H26.1392V48.3709H27.4859Z" fill="white"/>
<path d="M32.1107 46.4927C32.1313 46.5134 32.1431 46.54 32.1431 46.5695V49.8033C32.1431 49.8948 32.1254 49.9834 32.09 50.0632C32.0545 50.1459 32.0043 50.2167 31.9453 50.2788C31.8862 50.3408 31.8153 50.388 31.7326 50.4235C31.6499 50.4589 31.5643 50.4737 31.4728 50.4737H29.7451C29.6536 50.4737 29.565 50.456 29.4852 50.4235C29.4025 50.388 29.3317 50.3408 29.2696 50.2788C29.2076 50.2167 29.1604 50.1459 29.1249 50.0632C29.0895 49.9805 29.0718 49.8948 29.0718 49.8033V48.5747C29.0718 48.5009 29.1072 48.4655 29.181 48.4655H29.9725C30.0434 48.4655 30.0818 48.5009 30.0818 48.5747V49.3957C30.0818 49.4253 30.0906 49.4519 30.1143 49.4696C30.1349 49.4873 30.1615 49.4991 30.1911 49.4991H31.0239C31.0534 49.4991 31.08 49.4902 31.1006 49.4696C31.1213 49.4489 31.1331 49.4253 31.1331 49.3957V46.5665C31.1331 46.537 31.142 46.5104 31.1627 46.4898C31.1833 46.4691 31.207 46.4573 31.2365 46.4573H32.0339C32.0634 46.4573 32.09 46.4691 32.1107 46.4898V46.4927Z" fill="white"/>
<path d="M35.7371 46.4602C35.8287 46.4602 35.9173 46.4779 35.997 46.5134C36.0797 46.5488 36.1506 46.599 36.2097 46.6581C36.2687 46.7171 36.316 46.788 36.3544 46.8707C36.3928 46.9534 36.4075 47.039 36.4075 47.1306V49.8033C36.4075 49.8948 36.3898 49.9834 36.3544 50.0631C36.3189 50.1429 36.2717 50.2167 36.2097 50.2787C36.1506 50.3407 36.0797 50.388 35.997 50.4234C35.9143 50.4589 35.8287 50.4736 35.7371 50.4736H33.7053C33.6138 50.4736 33.5252 50.4559 33.4454 50.4234C33.3627 50.388 33.2919 50.3407 33.2298 50.2787C33.1678 50.2167 33.1206 50.1458 33.0851 50.0631C33.0497 49.9805 33.032 49.8948 33.032 49.8033V47.1306C33.032 47.039 33.0497 46.9504 33.0851 46.8707C33.1206 46.791 33.1678 46.7171 33.2298 46.6581C33.2919 46.599 33.3627 46.5518 33.4454 46.5134C33.5281 46.4779 33.6138 46.4602 33.7053 46.4602H35.7371ZM35.3946 47.4348H34.0479V49.4991H35.3946V47.4348Z" fill="white"/>
<path d="M40.8079 50.3821C40.8227 50.4087 40.8256 50.4323 40.8138 50.4471C40.802 50.4648 40.7814 50.4737 40.7518 50.4737H39.8393C39.8097 50.4737 39.7773 50.4648 39.7477 50.4471C39.7182 50.4294 39.6946 50.4087 39.6798 50.3821L39.0714 49.2924C39.0626 49.2776 39.0508 49.2688 39.0301 49.2688H38.3479C38.3302 49.2688 38.3184 49.2776 38.3184 49.2983V50.3644C38.3184 50.4382 38.2829 50.4737 38.2091 50.4737H37.4176C37.3438 50.4737 37.3083 50.4382 37.3083 50.3644V46.5665C37.3083 46.4927 37.3438 46.4573 37.4176 46.4573H40.0106C40.1021 46.4573 40.1907 46.475 40.2704 46.5104C40.3531 46.5459 40.424 46.5961 40.4831 46.6551C40.5421 46.7142 40.5894 46.7851 40.6278 46.8678C40.6632 46.9505 40.6809 47.0361 40.6809 47.1277V48.6368C40.6809 48.7815 40.6366 48.9144 40.551 49.0295C40.4654 49.1477 40.3561 49.2245 40.2202 49.2688L40.2025 49.2747C40.1759 49.2835 40.17 49.2924 40.1848 49.3101L40.1907 49.3219L40.805 50.3821H40.8079ZM39.665 47.3934H38.2829V48.368H39.665V47.3934Z" fill="white"/>
<path d="M46.2181 49.4991C46.2477 49.4991 46.2742 49.5109 46.292 49.5316C46.3097 49.5523 46.3215 49.5788 46.3215 49.6084V50.3644C46.3215 50.3939 46.3126 50.4205 46.292 50.4412C46.2713 50.4619 46.2477 50.4737 46.2181 50.4737H43.7404C43.6665 50.4737 43.6311 50.4382 43.6311 50.3644V46.5665C43.6311 46.4927 43.6665 46.4573 43.7404 46.4573H44.5318C44.6057 46.4573 44.6411 46.4927 44.6411 46.5665V49.3957C44.6411 49.4253 44.65 49.4519 44.6736 49.4696C44.6972 49.4873 44.7208 49.4991 44.7504 49.4991H46.2181Z" fill="white"/>
<path d="M49.9214 46.4926C49.9421 46.5133 49.9539 46.5399 49.9539 46.5694V47.293C49.9539 47.3225 49.9421 47.3491 49.9214 47.3668C49.9007 47.3845 49.8742 47.3963 49.8446 47.3963H47.9221C47.9044 47.3963 47.8926 47.4052 47.8926 47.4259V48.052C47.8926 48.0667 47.9014 48.0756 47.9221 48.0756H49.5641C49.5936 48.0756 49.6202 48.0874 49.6379 48.1081C49.6556 48.1287 49.6674 48.1553 49.6674 48.1848V48.7578C49.6674 48.7873 49.6586 48.8139 49.6379 48.8346C49.6172 48.8552 49.5936 48.867 49.5641 48.867H47.9221C47.9044 48.867 47.8926 48.8759 47.8926 48.8966V49.5168C47.8926 49.5345 47.9014 49.5463 47.9221 49.5463H49.8446C49.8742 49.5463 49.9007 49.5581 49.9214 49.5788C49.9421 49.5994 49.9539 49.626 49.9539 49.6556V50.3732C49.9539 50.4027 49.9421 50.4293 49.9214 50.45C49.9007 50.4706 49.8742 50.4825 49.8446 50.4825H46.9948C46.9209 50.4825 46.8855 50.447 46.8855 50.3732V46.5753C46.8855 46.5458 46.8973 46.5192 46.918 46.4986C46.9387 46.4779 46.9652 46.4661 46.9948 46.4661H49.8446C49.8742 46.4661 49.9007 46.4779 49.9214 46.4986V46.4926Z" fill="white"/>
<path d="M53.5599 46.4602C53.6514 46.4602 53.74 46.4779 53.8227 46.5134C53.9054 46.5488 53.9763 46.599 54.0353 46.6581C54.0944 46.7171 54.1417 46.788 54.1801 46.8707C54.2184 46.9534 54.2332 47.039 54.2332 47.1306V50.3644C54.2332 50.3939 54.2214 50.4205 54.2007 50.4412C54.1801 50.4618 54.1535 50.4736 54.1239 50.4736H53.3266C53.297 50.4736 53.2705 50.4618 53.2498 50.4412C53.2291 50.4205 53.2173 50.3939 53.2173 50.3644V49.3366C53.2173 49.3071 53.2084 49.2805 53.1878 49.2599C53.1671 49.2392 53.1435 49.2274 53.1139 49.2274H51.9769C51.9474 49.2274 51.9208 49.2392 51.9002 49.2599C51.8795 49.2805 51.8677 49.3071 51.8677 49.3366V50.3644C51.8677 50.4382 51.8322 50.4736 51.7584 50.4736H50.9669C50.8961 50.4736 50.8577 50.4382 50.8577 50.3644V47.1306C50.8577 47.039 50.8754 46.9504 50.9079 46.8707C50.9433 46.788 50.9906 46.7171 51.0526 46.6581C51.1146 46.599 51.1855 46.5518 51.2682 46.5134C51.3509 46.4779 51.4365 46.4602 51.528 46.4602H53.5599ZM53.2173 48.3709V47.3609H51.8706V48.3709H53.2173Z" fill="white"/>
<path d="M58.4683 48.3148C58.489 48.3355 58.5008 48.3621 58.5008 48.3916V49.8033C58.5008 49.8948 58.4831 49.9834 58.4476 50.0631C58.4122 50.1429 58.3649 50.2167 58.3029 50.2787C58.2439 50.3407 58.173 50.388 58.0903 50.4234C58.0076 50.4589 57.922 50.4736 57.8304 50.4736H55.7986C55.707 50.4736 55.6184 50.4559 55.5387 50.4234C55.456 50.388 55.3851 50.3407 55.3231 50.2787C55.2611 50.2167 55.2138 50.1458 55.1784 50.0631C55.143 49.9805 55.1252 49.8948 55.1252 49.8033V47.1306C55.1252 47.039 55.143 46.9504 55.1784 46.8707C55.2138 46.791 55.2611 46.7171 55.3231 46.6581C55.3851 46.599 55.456 46.5518 55.5387 46.5134C55.6214 46.4779 55.707 46.4602 55.7986 46.4602H58.1671C58.1966 46.4602 58.2232 46.472 58.2439 46.4927C58.2645 46.5134 58.2763 46.5399 58.2763 46.5695V47.3255C58.2763 47.355 58.2645 47.3816 58.2439 47.4023C58.2232 47.423 58.1966 47.4348 58.1671 47.4348H56.2445C56.215 47.4348 56.1884 47.4436 56.1677 47.4643C56.1471 47.485 56.1352 47.5086 56.1352 47.5381V49.3957C56.1352 49.4252 56.1471 49.4518 56.1677 49.4695C56.1884 49.4873 56.215 49.4991 56.2445 49.4991H57.3815C57.411 49.4991 57.4376 49.4902 57.4553 49.4695C57.4731 49.4489 57.4849 49.4252 57.4849 49.3957V48.3916C57.4849 48.3621 57.4937 48.3355 57.5174 48.3148C57.541 48.2942 57.5646 48.2823 57.5941 48.2823H58.3915C58.4211 48.2823 58.4476 48.2942 58.4683 48.3148Z" fill="white"/>
<path d="M62.7002 46.4927C62.7209 46.5134 62.7327 46.5399 62.7327 46.5695V49.8033C62.7327 49.8948 62.715 49.9834 62.6796 50.0631C62.6441 50.1429 62.5969 50.2167 62.5349 50.2787C62.4758 50.3407 62.4049 50.388 62.3222 50.4234C62.2395 50.4589 62.1539 50.4736 62.0594 50.4736H60.0276C59.936 50.4736 59.8474 50.4559 59.7677 50.4234C59.685 50.388 59.6141 50.3407 59.5521 50.2787C59.4901 50.2167 59.4428 50.1458 59.4074 50.0631C59.3719 49.9805 59.3572 49.8948 59.3572 49.8033V46.5695C59.3572 46.4956 59.3926 46.4602 59.4664 46.4602H60.2579C60.3288 46.4602 60.3672 46.4956 60.3672 46.5695V49.3987C60.3672 49.4282 60.379 49.4548 60.3997 49.4725C60.4203 49.4902 60.4469 49.502 60.4765 49.502H61.6134C61.643 49.502 61.6696 49.4932 61.6873 49.4725C61.705 49.4518 61.7168 49.4282 61.7168 49.3987V46.5695C61.7168 46.5399 61.7286 46.5134 61.7493 46.4927C61.77 46.472 61.7965 46.4602 61.8261 46.4602H62.6235C62.653 46.4602 62.6796 46.472 62.7002 46.4927Z" fill="white"/>
<path d="M66.6753 46.4926C66.696 46.5133 66.7078 46.5399 66.7078 46.5694V47.293C66.7078 47.3225 66.696 47.3491 66.6753 47.3668C66.6547 47.3845 66.6281 47.3963 66.5985 47.3963H64.676C64.6583 47.3963 64.6465 47.4052 64.6465 47.4259V48.052C64.6465 48.0667 64.6553 48.0756 64.676 48.0756H66.318C66.3475 48.0756 66.3741 48.0874 66.3918 48.1081C66.4095 48.1287 66.4213 48.1553 66.4213 48.1848V48.7578C66.4213 48.7873 66.4125 48.8139 66.3918 48.8346C66.3711 48.8552 66.3475 48.867 66.318 48.867H64.676C64.6583 48.867 64.6465 48.8759 64.6465 48.8966V49.5168C64.6465 49.5345 64.6553 49.5463 64.676 49.5463H66.5985C66.6281 49.5463 66.6547 49.5581 66.6753 49.5788C66.696 49.5994 66.7078 49.626 66.7078 49.6556V50.3732C66.7078 50.4027 66.696 50.4293 66.6753 50.45C66.6547 50.4706 66.6281 50.4825 66.5985 50.4825H63.7487C63.6748 50.4825 63.6394 50.447 63.6394 50.3732V46.5753C63.6394 46.5458 63.6512 46.5192 63.6719 46.4986C63.6926 46.4779 63.7191 46.4661 63.7487 46.4661H66.5985C66.6281 46.4661 66.6547 46.4779 66.6753 46.4986V46.4926Z" fill="white"/>
<path d="M72.8327 46.4602C72.8622 46.4602 72.8888 46.472 72.9095 46.4927C72.9301 46.5134 72.942 46.5399 72.942 46.5695V50.3673C72.942 50.3969 72.9331 50.4234 72.9095 50.4441C72.8858 50.4648 72.8622 50.4766 72.8327 50.4766H72.0353C72.0058 50.4766 71.9792 50.4648 71.9585 50.4441C71.9379 50.4234 71.926 50.3969 71.926 50.3673V49.0413C71.926 49.0118 71.9172 48.9852 71.8965 48.9675C71.8758 48.9498 71.8522 48.938 71.8227 48.938H70.6857C70.6562 48.938 70.6296 48.9468 70.6089 48.9675C70.5882 48.9882 70.5764 49.0118 70.5764 49.0413V50.3673C70.5764 50.4412 70.541 50.4766 70.4671 50.4766H69.6757C69.6018 50.4766 69.5664 50.4412 69.5664 50.3673V46.5695C69.5664 46.4956 69.6018 46.4602 69.6757 46.4602H70.4671C70.541 46.4602 70.5764 46.4956 70.5764 46.5695V47.8541C70.5764 47.928 70.6119 47.9634 70.6857 47.9634H71.8227C71.8522 47.9634 71.8788 47.9516 71.8965 47.9309C71.9142 47.9102 71.926 47.8837 71.926 47.8541V46.5695C71.926 46.5399 71.9379 46.5134 71.9585 46.4927C71.9792 46.472 72.0058 46.4602 72.0353 46.4602H72.8327Z" fill="white"/>
<path d="M76.5479 46.4602C76.6395 46.4602 76.7281 46.4779 76.8107 46.5134C76.8934 46.5488 76.9643 46.599 77.0234 46.6581C77.0824 46.7171 77.1297 46.788 77.1681 46.8707C77.2065 46.9534 77.2213 47.039 77.2213 47.1306V50.3644C77.2213 50.3939 77.2094 50.4205 77.1888 50.4412C77.1681 50.4618 77.1415 50.4736 77.112 50.4736H76.3146C76.2851 50.4736 76.2585 50.4618 76.2378 50.4412C76.2171 50.4205 76.2053 50.3939 76.2053 50.3644V49.3366C76.2053 49.3071 76.1965 49.2805 76.1758 49.2599C76.1551 49.2392 76.1315 49.2274 76.102 49.2274H74.965C74.9354 49.2274 74.9089 49.2392 74.8882 49.2599C74.8675 49.2805 74.8557 49.3071 74.8557 49.3366V50.3644C74.8557 50.4382 74.8203 50.4736 74.7464 50.4736H73.955C73.8841 50.4736 73.8457 50.4382 73.8457 50.3644V47.1306C73.8457 47.039 73.8634 46.9504 73.8959 46.8707C73.9313 46.788 73.9786 46.7171 74.0406 46.6581C74.1026 46.599 74.1735 46.5518 74.2562 46.5134C74.3389 46.4779 74.4245 46.4602 74.5161 46.4602H76.5479ZM76.2053 48.3709V47.3609H74.8587V48.3709H76.2053Z" fill="white"/>
<path d="M79.1497 47.4643C79.129 47.482 79.1172 47.5086 79.1172 47.5381V49.3957C79.1172 49.4252 79.126 49.4518 79.1497 49.4695C79.1733 49.4873 79.1969 49.4991 79.2264 49.4991H81.0693C81.0988 49.4991 81.1254 49.5109 81.146 49.5316C81.1667 49.5522 81.1785 49.5788 81.1785 49.6083V50.3644C81.1785 50.3939 81.1697 50.4205 81.146 50.4412C81.1224 50.4618 81.0988 50.4736 81.0693 50.4736H78.7805C78.689 50.4736 78.6004 50.4559 78.5206 50.4234C78.4379 50.388 78.3671 50.3407 78.305 50.2787C78.243 50.2167 78.1958 50.1458 78.1603 50.0631C78.1249 49.9805 78.1072 49.8948 78.1072 49.8033V47.1306C78.1072 47.039 78.1249 46.9504 78.1603 46.8707C78.1958 46.788 78.243 46.7171 78.305 46.6581C78.3671 46.599 78.4379 46.5518 78.5206 46.5134C78.6033 46.4779 78.689 46.4602 78.7805 46.4602H81.0693C81.0988 46.4602 81.1254 46.472 81.146 46.4927C81.1667 46.5134 81.1785 46.5399 81.1785 46.5695V47.3255C81.1785 47.355 81.1697 47.3816 81.146 47.4023C81.1224 47.423 81.0988 47.4348 81.0693 47.4348H79.2264C79.1969 47.4348 79.1703 47.4436 79.1497 47.4643Z" fill="white"/>
<path d="M84.3741 48.1524C84.3741 48.1524 84.3593 48.176 84.3682 48.1937L85.7119 50.385C85.7267 50.4116 85.7296 50.4353 85.7178 50.45C85.706 50.4677 85.6853 50.4766 85.6558 50.4766H84.7049C84.6753 50.4766 84.6429 50.4677 84.6133 50.45C84.5838 50.4323 84.5602 50.4116 84.5454 50.385L83.6801 48.8198C83.6683 48.8021 83.6594 48.7992 83.6506 48.8139L83.1751 49.3366C83.1574 49.3573 83.1397 49.3839 83.1279 49.4193C83.1131 49.4548 83.1072 49.4902 83.1072 49.5197V50.3673C83.1072 50.4412 83.0717 50.4766 82.9979 50.4766H82.2064C82.1326 50.4766 82.0972 50.4412 82.0972 50.3673V46.5695C82.0972 46.4956 82.1326 46.4602 82.2064 46.4602H82.9979C83.0717 46.4602 83.1072 46.4956 83.1072 46.5695V48.2735L84.5867 46.5399C84.6045 46.5163 84.631 46.4986 84.6665 46.4838C84.7019 46.4691 84.7344 46.4602 84.7639 46.4602H85.7149C85.7444 46.4602 85.7621 46.4691 85.768 46.4838C85.7739 46.4986 85.768 46.5193 85.7474 46.5399L84.3771 48.1524H84.3741Z" fill="white"/>
<path d="M87.4661 50.3673C87.4661 50.4412 87.4306 50.4766 87.3568 50.4766H86.5653C86.4915 50.4766 86.4561 50.4412 86.4561 50.3673V46.5695C86.4561 46.4956 86.4915 46.4602 86.5653 46.4602H87.3568C87.4306 46.4602 87.4661 46.4956 87.4661 46.5695V50.3673Z" fill="white"/>
<path d="M91.3288 46.5134C91.4115 46.5488 91.4824 46.599 91.5415 46.6581C91.6005 46.7172 91.6478 46.788 91.6862 46.8707C91.7216 46.9534 91.7393 47.0391 91.7393 47.1306V50.3644C91.7393 50.3939 91.7305 50.4205 91.7068 50.4412C91.6832 50.4619 91.6596 50.4737 91.63 50.4737H90.8327C90.8031 50.4737 90.7766 50.4619 90.7588 50.4412C90.7411 50.4205 90.7293 50.3939 90.7293 50.3644V47.5352C90.7293 47.5057 90.7175 47.4791 90.6968 47.4614C90.6761 47.4437 90.6496 47.4318 90.62 47.4318H89.483C89.4535 47.4318 89.4269 47.4407 89.4063 47.4614C89.3856 47.482 89.3738 47.5057 89.3738 47.5352V50.3644C89.3738 50.4382 89.3383 50.4737 89.2645 50.4737H88.473C88.3992 50.4737 88.3638 50.4382 88.3638 50.3644V46.5665C88.3638 46.4927 88.3992 46.4573 88.473 46.4573H91.066C91.1575 46.4573 91.2461 46.475 91.3259 46.5104L91.3288 46.5134Z" fill="white"/>
<path d="M95.9744 48.3148C95.9951 48.3355 96.0069 48.3621 96.0069 48.3916V49.8033C96.0069 49.8948 95.9892 49.9834 95.9537 50.0631C95.9183 50.1429 95.871 50.2167 95.809 50.2787C95.75 50.3407 95.6791 50.388 95.5964 50.4234C95.5137 50.4589 95.4281 50.4736 95.3365 50.4736H93.3047C93.2131 50.4736 93.1245 50.4559 93.0448 50.4234C92.9621 50.388 92.8912 50.3407 92.8292 50.2787C92.7672 50.2167 92.7199 50.1458 92.6845 50.0631C92.6491 49.9805 92.6313 49.8948 92.6313 49.8033V47.1306C92.6313 47.039 92.6491 46.9504 92.6845 46.8707C92.7199 46.791 92.7672 46.7171 92.8292 46.6581C92.8912 46.599 92.9621 46.5518 93.0448 46.5134C93.1275 46.4779 93.2131 46.4602 93.3047 46.4602H95.6732C95.7027 46.4602 95.7293 46.472 95.75 46.4927C95.7706 46.5134 95.7824 46.5399 95.7824 46.5695V47.3255C95.7824 47.355 95.7706 47.3816 95.75 47.4023C95.7293 47.423 95.7027 47.4348 95.6732 47.4348H93.7506C93.7211 47.4348 93.6945 47.4436 93.6738 47.4643C93.6532 47.485 93.6413 47.5086 93.6413 47.5381V49.3957C93.6413 49.4252 93.6532 49.4518 93.6738 49.4695C93.6945 49.4873 93.7211 49.4991 93.7506 49.4991H94.8876C94.9171 49.4991 94.9437 49.4902 94.9614 49.4695C94.9792 49.4489 94.991 49.4252 94.991 49.3957V48.3916C94.991 48.3621 94.9998 48.3355 95.0235 48.3148C95.0471 48.2942 95.0707 48.2823 95.1002 48.2823H95.8976C95.9272 48.2823 95.9537 48.2942 95.9744 48.3148Z" fill="white"/>
<path d="M44.1834 18.8179C44.7032 19.0483 45.1491 19.3495 45.5242 19.7216C45.8992 20.0967 46.2005 20.5426 46.4308 21.0594C46.6612 21.5792 46.7764 22.1256 46.7764 22.7044V43.7698C46.7764 43.9618 46.7084 44.1272 46.5755 44.2571C46.4426 44.387 46.2802 44.455 46.0853 44.455H41.0471C40.8522 44.455 40.6957 44.39 40.5746 44.2571C40.4535 44.1242 40.3944 43.9618 40.3944 43.7698V24.621H36.3337V43.7698C36.3337 43.9618 36.2717 44.1272 36.1536 44.2571C36.0325 44.39 35.876 44.455 35.6811 44.455H31.1124C30.9175 44.455 30.7551 44.39 30.6222 44.2571C30.4893 44.1242 30.4214 43.9618 30.4214 43.7698V24.621H26.3607V43.7698C26.3607 44.2276 26.1303 44.4579 25.6726 44.4579H20.6698C20.2091 44.4579 19.9817 44.2276 19.9817 43.7698V19.1605C19.9817 18.7028 20.212 18.4724 20.6698 18.4724H42.5296C43.1084 18.4724 43.6577 18.5876 44.1775 18.815L44.1834 18.8179Z" fill="white"/>
<path d="M44.1875 18.8179C44.7073 19.0483 45.1532 19.3495 45.5283 19.7216C45.9033 20.0967 46.2046 20.5426 46.4349 21.0594C46.6653 21.5792 46.7804 22.1256 46.7804 22.7044V24.5827L40.4015 24.621H26.3736L19.9946 24.5827V19.1605C19.9946 18.7028 20.225 18.4724 20.6827 18.4724H42.5426C43.1214 18.4724 43.6707 18.5876 44.1905 18.815L44.1875 18.8179Z" fill="white"/>
<path d="M68.7455 38.1527C68.9492 38.1527 69.1176 38.2206 69.2445 38.3565C69.3715 38.4923 69.4365 38.6607 69.4365 38.8585V43.7579C69.4365 43.9558 69.3715 44.1241 69.2445 44.26C69.1176 44.3958 68.9492 44.4638 68.7455 44.4638H51.4868C50.9995 44.4638 50.7573 44.2275 50.7573 43.7579V19.1812C50.7573 18.7116 50.9995 18.4753 51.4868 18.4753H56.7849C57.2722 18.4753 57.5143 18.7116 57.5143 19.1812V37.4853C57.5143 37.6831 57.5852 37.8456 57.7269 37.9667C57.8687 38.0907 58.04 38.1527 58.2467 38.1527H68.7455Z" fill="white"/>
<path d="M57.4611 44.4638H51.4867C51.0024 44.4638 50.7603 44.2275 50.7603 43.7579V19.1812C50.7603 18.7116 51.0024 18.4753 51.4867 18.4753H56.773C57.2574 18.4753 57.4995 18.7116 57.4995 19.1812V37.4853C57.4995 37.6831 57.4611 44.4638 57.4611 44.4638Z" fill="white"/>
<path d="M95.2714 18.4754C95.4782 18.4754 95.6524 18.5433 95.7941 18.6791C95.9359 18.815 96.0068 18.9833 96.0068 19.1812V43.8288C96.0068 44.0267 95.9359 44.195 95.7941 44.3309C95.6524 44.4667 95.4782 44.5347 95.2714 44.5347H89.9025C89.6957 44.5347 89.5215 44.4667 89.3797 44.3309C89.238 44.195 89.1671 44.0267 89.1671 43.8288V35.229C89.1671 35.0312 89.1021 34.8687 88.9751 34.7447C88.8452 34.6207 88.6798 34.5586 88.4731 34.5586H80.9424C80.7356 34.5586 80.5614 34.6207 80.4196 34.7447C80.2779 34.8687 80.207 35.0312 80.207 35.229V43.8288C80.207 44.3014 79.9619 44.5376 79.4746 44.5376H74.144C73.6538 44.5376 73.4116 44.3014 73.4116 43.8288V19.1812C73.4116 18.7087 73.6567 18.4724 74.144 18.4724H79.4746C79.9619 18.4724 80.207 18.7087 80.207 19.1812V27.5211C80.207 27.9936 80.4521 28.2299 80.9394 28.2299H88.4701C88.6769 28.2299 88.8422 28.162 88.9722 28.0261C89.1021 27.8903 89.1641 27.7219 89.1641 27.5241V19.1841C89.1641 18.9863 89.235 18.8179 89.3768 18.6821C89.5185 18.5462 89.6928 18.4783 89.8995 18.4783H95.2685L95.2714 18.4754Z" fill="white"/>
<path d="M80.2129 35.229V43.8288C80.2129 44.3014 79.9677 44.5376 79.4805 44.5376H74.1499C73.6596 44.5376 73.4175 44.3014 73.4175 43.8288V19.1812C73.4175 18.7087 73.6626 18.4724 74.1499 18.4724H79.4805C79.9677 18.4724 80.2129 18.7087 80.2129 19.1812V35.229Z" fill="white"/>
<path d="M95.2713 18.4753C95.4781 18.4753 95.6523 18.5433 95.794 18.6791C95.9358 18.815 96.0067 18.9833 96.0067 19.1812V43.8288C96.0067 44.0267 95.9358 44.195 95.794 44.3309C95.6523 44.4667 95.4781 44.5346 95.2713 44.5346H89.9024C89.6956 44.5346 89.5214 44.4667 89.3796 44.3309C89.2379 44.195 89.167 44.0267 89.167 43.8288V19.1812C89.167 18.9833 89.2379 18.815 89.3796 18.6791C89.5214 18.5433 89.6956 18.4753 89.9024 18.4753H95.2713Z" fill="white"/>
<path d="M23.1918 144.067V147.065C23.2597 147.401 23.4606 147.57 23.7972 147.57H35.1081C35.2883 147.57 35.433 147.632 35.5452 147.756C35.6574 147.88 35.7135 148.03 35.7135 148.211V152.283C35.7135 152.463 35.6574 152.614 35.5452 152.738C35.433 152.862 35.2883 152.924 35.1081 152.924H18.5434C18.1182 152.924 17.9026 152.711 17.9026 152.283V142.656C17.9026 142.118 18.003 141.613 18.2068 141.141C18.4105 140.668 18.6881 140.255 19.0484 139.894C19.4087 139.534 19.8281 139.253 20.3124 139.053C20.7938 138.852 21.3047 138.748 21.8452 138.748H29.8248C30.0049 138.748 30.1555 138.686 30.2796 138.562C30.4036 138.438 30.4656 138.288 30.4656 138.108V135.382C30.4656 135.202 30.4036 135.051 30.2796 134.927C30.1555 134.803 30.0049 134.741 29.8248 134.741H19.2522C19.0721 134.741 18.9274 134.685 18.8151 134.573C18.7029 134.46 18.6468 134.316 18.6468 134.136V129.995C18.6468 129.815 18.7029 129.664 18.8151 129.54C18.9274 129.416 19.0721 129.354 19.2522 129.354H31.8094C32.3468 129.354 32.8518 129.461 33.3244 129.673C33.7969 129.886 34.2103 130.166 34.5706 130.515C34.928 130.863 35.2115 131.277 35.4123 131.761C35.6131 132.245 35.7165 132.753 35.7165 133.294V134.236C35.7372 134.26 35.749 134.292 35.749 134.336V142.921C35.749 143.102 35.6869 143.246 35.5629 143.358C35.4389 143.471 35.2883 143.527 35.1081 143.527H23.7972C23.4812 143.527 23.2804 143.707 23.1918 144.064V144.067Z" fill="white"/>
<path d="M53.3236 129.354C53.8611 129.354 54.372 129.461 54.8564 129.673C55.3377 129.886 55.7541 130.166 56.1026 130.515C56.4511 130.863 56.7317 131.277 56.9443 131.761C57.1569 132.245 57.2632 132.753 57.2632 133.294V148.981C57.2632 149.519 57.1569 150.03 56.9443 150.514C56.7317 150.998 56.4511 151.418 56.1026 151.775C55.7541 152.135 55.3407 152.416 54.8564 152.617C54.372 152.818 53.8641 152.921 53.3236 152.921H43.1911C42.6536 152.921 42.1427 152.821 41.6583 152.617C41.174 152.416 40.7547 152.135 40.3973 151.775C40.037 151.418 39.7565 150.996 39.5556 150.514C39.3548 150.033 39.2515 149.522 39.2515 148.981V133.294C39.2515 132.756 39.3519 132.245 39.5556 131.761C39.7565 131.28 40.037 130.863 40.3973 130.515C40.7547 130.166 41.177 129.886 41.6583 129.673C42.1397 129.461 42.6506 129.354 43.1911 129.354H53.3236ZM51.5399 135.078H44.9748V147.198H51.5399V135.078Z" fill="white"/>
<path d="M65.9841 144.067V147.065C66.052 147.401 66.2528 147.57 66.5895 147.57H77.9004C78.0805 147.57 78.2252 147.632 78.3375 147.756C78.4497 147.88 78.5058 148.03 78.5058 148.211V152.283C78.5058 152.463 78.4497 152.614 78.3375 152.738C78.2252 152.862 78.0805 152.924 77.9004 152.924H61.3357C60.9104 152.924 60.6948 152.711 60.6948 152.283V142.656C60.6948 142.118 60.7952 141.613 60.999 141.141C61.1998 140.668 61.4804 140.255 61.8407 139.894C62.201 139.534 62.6203 139.253 63.1017 139.053C63.5831 138.852 64.094 138.748 64.6344 138.748H72.6141C72.7942 138.748 72.9448 138.686 73.0689 138.562C73.1929 138.438 73.2549 138.288 73.2549 138.108V135.382C73.2549 135.202 73.1929 135.051 73.0689 134.927C72.9448 134.803 72.7942 134.741 72.6141 134.741H62.0415C61.8614 134.741 61.7166 134.685 61.6044 134.573C61.4922 134.46 61.4361 134.316 61.4361 134.136V129.995C61.4361 129.815 61.4922 129.664 61.6044 129.54C61.7166 129.416 61.8614 129.354 62.0415 129.354H74.5987C75.1361 129.354 75.6412 129.461 76.1137 129.673C76.5862 129.886 76.9996 130.166 77.3599 130.515C77.7202 130.863 78.0008 131.277 78.2016 131.761C78.4024 132.245 78.5058 132.753 78.5058 133.294V134.236C78.5265 134.26 78.5383 134.292 78.5383 134.336V142.921C78.5383 143.102 78.4763 143.246 78.3522 143.358C78.2282 143.471 78.0776 143.527 77.8974 143.527H66.5865C66.2705 143.527 66.0697 143.707 65.9811 144.064L65.9841 144.067Z" fill="white"/>
<path d="M98.5227 129.54C98.6468 129.664 98.7088 129.815 98.7088 129.995V152.283C98.7088 152.463 98.6468 152.614 98.5227 152.738C98.3987 152.862 98.2481 152.924 98.068 152.924H93.3871C93.2069 152.924 93.0622 152.862 92.95 152.738C92.8378 152.614 92.7817 152.463 92.7817 152.283V146.761C92.7817 146.58 92.7197 146.436 92.5956 146.323C92.4716 146.211 92.321 146.155 92.1408 146.155H84.6337C84.0962 146.155 83.5853 146.049 83.101 145.836C82.6196 145.624 82.1973 145.343 81.8399 144.995C81.4797 144.646 81.1991 144.233 80.9983 143.748C80.7975 143.267 80.6941 142.756 80.6941 142.216V129.995C80.6941 129.57 80.9067 129.354 81.3349 129.354H85.9804C86.4056 129.354 86.6212 129.567 86.6212 129.995V139.59C86.6212 139.77 86.6832 139.921 86.8073 140.045C86.9313 140.169 87.0819 140.231 87.2621 140.231H92.1438C92.3239 140.231 92.4745 140.169 92.5986 140.045C92.7226 139.921 92.7846 139.77 92.7846 139.59V129.995C92.7846 129.815 92.8407 129.664 92.953 129.54C93.0652 129.416 93.2099 129.354 93.39 129.354H98.0709C98.251 129.354 98.4017 129.416 98.5257 129.54H98.5227Z" fill="white"/>
</g>
<defs>
<clipPath id="clip0_315_2">
<rect width="116" height="203.182" fill="white"/>
</clipPath>
</defs>
</svg>
